# xmcd
#
# Track frame offsets:
#	150
#	17562
#	35160
#	50580
#	61572
#	79043
#	99203
#	116723
#	134178
#	152073
#	166788
#	183020
#	199230
#	213758
#	229635
#	246075
#	264265
#	283090
#
# Disc length: 3981 seconds
#
# Revision: 0
# Processed by: cddbd v1.4PL0 Copyright (c) Steve Scherf et al.
# Submitted via: EasyCDDAExtractor 4.6.9.1
#
DISCID=ed0f8b12
DTITLE=Shakira - Éxitos
DYEAR=2000
DGENRE=Pop
TTITLE0=Estoy aquí
TTITLE1=Vuelve
TTITLE2=Te espero sentada
TTITLE3=Pienso en ti
TTITLE4=¿Dónde estas corazón?
TTITLE5=Ciega Sordo Muda
TTITLE6=No creo
TTITLE7=Que vuelvas
TTITLE8=Ojos así
TTITLE9=¿Dónde están los ladrones?
TTITLE10=Sombra de ti
TTITLE11=Tú
TTITLE12=Inevitable
TTITLE13=Si te vas
TTITLE14=Se quiere se mata
TTITLE15=Un poco de amor
TTITLE16=Quiero
TTITLE17=Pies descalzos
EXTD=
EXTT0=
EXTT1=
EXTT2=
EXTT3=
EXTT4=
EXTT5=
EXTT6=
EXTT7=
EXTT8=
EXTT9=
EXTT10=
EXTT11=
EXTT12=
EXTT13=
EXTT14=
EXTT15=
EXTT16=
EXTT17=
PLAYORDER=
